# xmcd
#
# Track frame offsets:
#	150
#	24019
#	60188
#	119552
#	138113
#	190742
#	235696
#	266906
#
# Disc length: 3923 seconds
#
# Revision: 1
# Processed by: cddbd v1.5.2PL0 Copyright (c) Steve Scherf et al.
# Submitted via: audiograbber 1.83.01
#
DISCID=5f0f5108
DTITLE=Grateful Dead - 77-02-26 Swing Theatre, San Bernardino CA
DYEAR=1900
DGENRE=
TTITLE0=Help On The Way
TTITLE1=Slipknot!
TTITLE2=Franklin's Tower
TTITLE3=Promised Land
TTITLE4=Eyes Of The World
TTITLE5=Dancing In The Streets
TTITLE6=Around and Around
TTITLE7=US Blues
EXTD=
EXTT0=
EXTT1=
EXTT2=
EXTT3=
EXTT4=
EXTT5=
EXTT6=
EXTT7=
PLAYORDER=
